<?xml version="1.0" standalone="no"?>
<!DOCTYPE svg PUBLIC "-//W3C//DTD SVG 20010904//EN"
 "http://www.w3.org/TR/2001/REC-SVG-20010904/DTD/svg10.dtd">
<svg version="1.0" xmlns="http://www.w3.org/2000/svg"
 width="900.000000pt" height="348.000000pt" viewBox="0 0 900.000000 348.000000"
 preserveAspectRatio="xMidYMid meet">

<g transform="translate(0.000000,348.000000) scale(0.100000,-0.100000)"
fill="#000000" stroke="none">
<path d="M8570 3338 c-797 -382 -1851 -704 -2755 -843 -93 -15 -171 -27 -172
-29 -1 -1 0 -33 4 -71 l6 -68 155 -74 c258 -124 577 -267 756 -338 l169 -68
106 22 c546 114 1068 288 1488 495 252 125 364 199 396 263 65 128 67 392 6
635 -20 82 -38 128 -48 127 -3 0 -53 -23 -111 -51z"/>
<path d="M171 2964 c-26 -33 -59 -120 -78 -209 -24 -108 -21 -338 6 -440 12
-44 29 -91 39 -105 54 -76 406 -177 959 -275 326 -58 855 -131 1182 -163 l84
-8 146 79 c167 91 843 433 1034 524 l128 61 -88 6 c-1021 79 -2267 280 -3235
522 -75 19 -141 34 -147 34 -5 0 -19 -12 -30 -26z"/>
<path d="M4740 2913 c-27 -11 -100 -64 -100 -73 0 -8 110 -70 125 -70 3 0 5
34 5 75 0 41 -3 75 -7 74 -5 0 -15 -3 -23 -6z"/>
<path d="M4840 2828 c0 -90 -13 -501 -30 -933 -11 -271 -25 -527 -36 -662 -8
-87 -13 -85 115 -43 204 68 518 208 585 263 27 22 29 31 47 167 44 353 66 693
50 790 -13 78 -12 77 -221 219 -213 144 -456 281 -499 281 -7 0 -11 -31 -11
-82z"/>
<path d="M4032 2753 c-172 -75 -309 -139 -305 -144 8 -7 539 -296 858 -467
l150 -80 6 48 c4 26 10 167 14 312 l7 266 -198 101 c-109 55 -203 101 -209
100 -5 0 -151 -61 -323 -136z"/>
<path d="M3634 2545 c-9 -38 5 -47 70 -43 l57 3 -60 33 -60 33 -7 -26z"/>
<path d="M3730 2373 c-168 -77 -926 -455 -953 -475 -18 -13 -16 -18 29 -78 58
-76 242 -268 365 -381 l90 -82 674 339 c371 187 675 341 675 344 0 3 -42 27
-92 54 -51 28 -216 116 -367 198 -150 81 -274 148 -275 148 0 -1 -66 -31 -146
-67z"/>
<path d="M5646 2138 c-4 -57 -14 -173 -22 -258 -9 -85 -17 -175 -17 -200 l-2
-44 310 -134 c171 -74 585 -249 920 -389 637 -265 774 -327 940 -420 187 -105
444 -280 601 -408 l66 -55 62 47 c240 183 415 370 416 444 0 59 -161 165 -540
354 -516 258 -1100 506 -1611 685 -250 87 -501 194 -936 399 -95 45 -174 81
-176 81 -3 0 -7 -46 -11 -102z"/>
<path d="M4237 1767 c-257 -127 -466 -235 -464 -240 8 -25 372 -242 480 -287
67 -28 30 -43 293 118 l171 106 7 165 c3 91 9 207 12 256 5 81 4 91 -13 101
-16 10 -91 -23 -486 -219z"/>
<path d="M1871 1401 c-349 -197 -636 -362 -638 -367 -4 -12 238 -269 348 -371
48 -44 114 -100 149 -126 54 -41 64 -45 83 -35 53 27 1197 705 1205 712 1 2
-89 95 -201 207 -112 112 -225 234 -252 272 -27 37 -51 67 -54 66 -3 -1 -291
-162 -640 -358z"/>
<path d="M4608 1309 c-54 -33 -98 -64 -98 -68 0 -8 152 -81 169 -81 5 0 12 12
15 28 7 37 18 182 14 182 -1 0 -47 -28 -100 -61z"/>
<path d="M735 754 c-132 -79 -240 -148 -240 -153 0 -13 245 -280 335 -364 96
-90 187 -157 213 -157 24 0 190 86 375 194 l132 78 -64 49 c-86 65 -278 251
-400 388 -55 61 -102 111 -105 110 -4 0 -114 -65 -246 -145z"/>
</g>
</svg>
